<?xml version="1.0" encoding="iso-8859-1"?>
<!-- Generator: Adobe Illustrator 19.0.0, SVG Export Plug-In . SVG Version: 6.00 Build 0)  -->
<svg version="1.1" id="Layer_1" xmlns="http://www.w3.org/2000/svg" xmlns:xlink="http://www.w3.org/1999/xlink" x="0px" y="0px"
	 viewBox="0 0 512 512" style="enable-background:new 0 0 512 512;" xml:space="preserve">
<g>
	<g>
		<path d="M437.02,74.981C388.668,26.629,324.38,0,256,0S123.333,26.629,74.981,74.981S0,187.62,0,256
			s26.629,132.667,74.981,181.019S187.62,512,256,512s132.668-26.629,181.02-74.981C485.371,388.667,512,324.38,512,256
			S485.371,123.333,437.02,74.981z M256,30c60.367,0,117.12,23.508,159.806,66.194c0.1,0.1,0.196,0.203,0.296,0.303L341.333,226
			L229.088,31.586C237.955,30.541,246.935,30,256,30z M324.013,256l-34.006,58.901h-68.013L187.987,256l34.006-58.901h68.013
			L324.013,256z M96.194,96.194c28.619-28.618,63.565-48.6,101.68-58.673L272.686,167.1H48.105
			C59.292,140.949,75.477,116.911,96.194,96.194z M30,256c0-20.168,2.638-39.929,7.724-58.901h149.628L75.103,391.521
			C45.839,352.628,30,305.534,30,256z M256,482c-60.367,0-117.12-23.508-159.806-66.194c-0.1-0.1-0.196-0.203-0.296-0.303
			L170.666,286l112.245,194.414C274.045,481.459,265.065,482,256,482z M415.806,415.806c-28.619,28.618-63.566,48.601-101.68,58.673
			L239.314,344.9h224.581C452.708,371.051,436.523,395.089,415.806,415.806z M324.647,314.901l112.25-194.422
			C466.161,159.371,482,206.466,482,256c0,20.168-2.638,39.929-7.724,58.901H324.647z"/>
	</g>
</g>
<g>
</g>
<g>
</g>
<g>
</g>
<g>
</g>
<g>
</g>
<g>
</g>
<g>
</g>
<g>
</g>
<g>
</g>
<g>
</g>
<g>
</g>
<g>
</g>
<g>
</g>
<g>
</g>
<g>
</g>
</svg>
